<?xml version="1.0" standalone="no"?>
<svg xmlns:xlink="http://www.w3.org/1999/xlink" id="wave" style="transform:rotate(180deg); transition: 0.3s" viewBox="0 0 1440 160" version="1.1" xmlns="http://www.w3.org/2000/svg"><defs><linearGradient id="sw-gradient-0" x1="0" x2="0" y1="1" y2="0"><stop stop-color="rgba(0, 0, 0, 0.2)" offset="0%"/><stop stop-color="rgba(0, 0, 0, 0.198)" offset="100%"/></linearGradient></defs><path style="transform:translate(0, 0px); opacity:1" fill="url(#sw-gradient-0)" d="M0,80L60,88C120,96,240,112,360,98.7C480,85,600,43,720,21.3C840,0,960,0,1080,16C1200,32,1320,64,1440,66.7C1560,69,1680,43,1800,50.7C1920,59,2040,101,2160,109.3C2280,117,2400,91,2520,85.3C2640,80,2760,96,2880,101.3C3000,107,3120,101,3240,82.7C3360,64,3480,32,3600,32C3720,32,3840,64,3960,77.3C4080,91,4200,85,4320,72C4440,59,4560,37,4680,32C4800,27,4920,37,5040,34.7C5160,32,5280,16,5400,32C5520,48,5640,96,5760,106.7C5880,117,6000,91,6120,80C6240,69,6360,75,6480,64C6600,53,6720,27,6840,13.3C6960,0,7080,0,7200,16C7320,32,7440,64,7560,85.3C7680,107,7800,117,7920,109.3C8040,101,8160,75,8280,56C8400,37,8520,27,8580,21.3L8640,16L8640,160L8580,160C8520,160,8400,160,8280,160C8160,160,8040,160,7920,160C7800,160,7680,160,7560,160C7440,160,7320,160,7200,160C7080,160,6960,160,6840,160C6720,160,6600,160,6480,160C6360,160,6240,160,6120,160C6000,160,5880,160,5760,160C5640,160,5520,160,5400,160C5280,160,5160,160,5040,160C4920,160,4800,160,4680,160C4560,160,4440,160,4320,160C4200,160,4080,160,3960,160C3840,160,3720,160,3600,160C3480,160,3360,160,3240,160C3120,160,3000,160,2880,160C2760,160,2640,160,2520,160C2400,160,2280,160,2160,160C2040,160,1920,160,1800,160C1680,160,1560,160,1440,160C1320,160,1200,160,1080,160C960,160,840,160,720,160C600,160,480,160,360,160C240,160,120,160,60,160L0,160Z"/></svg>