<?xml version="1.0" encoding="UTF-8" standalone="no"?>
<svg
   height="48px"
   viewBox="0 0 24 24"
   width="48px"
   fill="#000000"
   version="1.1"
   id="svg1521"
   sodipodi:docname="schedule-blue.svg"
   inkscape:version="1.1 (c4e8f9e, 2021-05-24)"
   xmlns:inkscape="http://www.inkscape.org/namespaces/inkscape"
   xmlns:sodipodi="http://sodipodi.sourceforge.net/DTD/sodipodi-0.dtd"
   xmlns="http://www.w3.org/2000/svg"
   xmlns:svg="http://www.w3.org/2000/svg">
  <defs
     id="defs1525" />
  <sodipodi:namedview
     id="namedview1523"
     pagecolor="#ffffff"
     bordercolor="#666666"
     borderopacity="1.0"
     inkscape:pageshadow="2"
     inkscape:pageopacity="0.0"
     inkscape:pagecheckerboard="0"
     showgrid="false"
     inkscape:zoom="18.1875"
     inkscape:cx="13.168385"
     inkscape:cy="24.659794"
     inkscape:window-width="1310"
     inkscape:window-height="1081"
     inkscape:window-x="0"
     inkscape:window-y="25"
     inkscape:window-maximized="0"
     inkscape:current-layer="svg1521" />
  <path
     d="M0 0h24v24H0V0z"
     fill="none"
     id="path1517" />
  <path
     d="M11.99 2C6.47 2 2 6.48 2 12s4.47 10 9.99 10C17.52 22 22 17.52 22 12S17.52 2 11.99 2zM12 20c-4.42 0-8-3.58-8-8s3.58-8 8-8 8 3.58 8 8-3.58 8-8 8zm.5-13H11v6l5.25 3.15.75-1.23-4.5-2.67z"
     id="path1519" />
  <path
     style="fill:#12455a;stroke-width:0.0549828"
     d="M 22.257734,43.900941 C 13.40045,43.11307 6.1084593,36.550945 4.4033169,27.833599 4.1395349,26.485044 4.0502514,25.5156 4.0502514,24 c 0,-1.5156 0.089284,-2.485044 0.3530655,-3.833599 C 6.1219042,11.380319 13.479184,4.8134079 22.412498,4.0918855 c 1.002426,-0.080964 3.138496,-0.035944 4.034237,0.085026 3.800332,0.5132328 7.164522,1.9451504 10.099413,4.2986666 0.725937,0.5821353 2.060419,1.8902399 2.684003,2.6309509 2.263316,2.688433 3.780827,5.869604 4.393258,9.209622 0.249453,1.360437 0.32743,2.237749 0.32743,3.683849 0,1.440939 -0.07874,2.33156 -0.323249,3.656357 -1.124722,6.093907 -5.118458,11.394201 -10.685868,14.18177 -2.309782,1.156494 -4.740528,1.842267 -7.319729,2.065074 -0.721119,0.06229 -2.653129,0.061 -3.364259,-0.0023 z m 4.212344,-4.060003 c 2.786468,-0.456615 5.34719,-1.576227 7.509303,-3.283255 0.665173,-0.525167 2.206427,-2.092361 2.713543,-2.759213 1.713068,-2.252672 2.743207,-4.698049 3.178054,-7.544174 0.176564,-1.155625 0.176492,-3.353873 -1.65e-4,-4.508592 C 39.432724,18.881728 38.418338,16.477134 36.68156,14.185567 36.096763,13.413965 34.482333,11.812962 33.704467,11.233235 31.457049,9.5582812 29.083476,8.5648081 26.281787,8.1264278 25.36966,7.9837073 22.62659,7.9840471 21.718213,8.1269932 19.255019,8.5146116 17.079489,9.347299 15.120275,10.652363 c -1.29242,0.860902 -2.825008,2.276642 -3.735537,3.45073 -1.7560491,2.264351 -2.8389828,4.81202 -3.2583738,7.665526 -0.1753172,1.192845 -0.1753172,3.269917 0,4.462762 0.5084262,3.459296 1.9822838,6.461762 4.3803858,8.923495 2.698385,2.769983 6.034177,4.381506 9.953731,4.808652 0.120962,0.01318 0.912715,0.01719 1.75945,0.0089 1.255439,-0.01228 1.670648,-0.03654 2.250147,-0.131504 z"
     id="path1621"
     transform="scale(0.5)" />
  <path
     style="fill:#12455a;stroke-width:0.0549828"
     d="m 27.271478,29.120968 -5.195877,-3.11983 -0.01399,-5.976514 -0.01399,-5.976514 h 1.457289 1.457289 l 0.0011,5.237113 0.0011,5.237114 4.401309,2.608359 c 2.420719,1.434597 4.440898,2.637308 4.489287,2.67269 0.07705,0.05634 0.0052,0.200215 -0.577932,1.157964 -0.366252,0.601498 -0.698248,1.135441 -0.73777,1.186541 -0.0649,0.08392 -0.574604,-0.208963 -5.267734,-3.026923 z"
     id="path1660"
     transform="scale(0.5)" />
</svg>
