<?xml version="1.0" encoding="UTF-8" standalone="no"?>
<svg
   height="48px"
   viewBox="0 0 24 24"
   width="48px"
   fill="#000000"
   version="1.1"
   id="svg1556"
   sodipodi:docname="delete-blue.svg"
   inkscape:version="1.1 (c4e8f9e, 2021-05-24)"
   xmlns:inkscape="http://www.inkscape.org/namespaces/inkscape"
   xmlns:sodipodi="http://sodipodi.sourceforge.net/DTD/sodipodi-0.dtd"
   xmlns="http://www.w3.org/2000/svg"
   xmlns:svg="http://www.w3.org/2000/svg">
  <defs
     id="defs1560" />
  <sodipodi:namedview
     id="namedview1558"
     pagecolor="#ffffff"
     bordercolor="#666666"
     borderopacity="1.0"
     inkscape:pageshadow="2"
     inkscape:pageopacity="0.0"
     inkscape:pagecheckerboard="0"
     showgrid="false"
     inkscape:zoom="18.1875"
     inkscape:cx="24"
     inkscape:cy="24.659794"
     inkscape:window-width="2560"
     inkscape:window-height="1325"
     inkscape:window-x="0"
     inkscape:window-y="25"
     inkscape:window-maximized="1"
     inkscape:current-layer="svg1556" />
  <path
     d="M0 0h24v24H0V0z"
     fill="none"
     id="path1552" />
  <path
     d="M16 9v10H8V9h8m-1.5-6h-5l-1 1H5v2h14V4h-3.5l-1-1zM18 7H6v12c0 1.1.9 2 2 2h8c1.1 0 2-.9 2-2V7z"
     id="path1554" />
  <path
     style="fill:#12455a;stroke-width:0.0549828"
     d="m 15.249798,41.896792 c -0.459053,-0.09208 -1.03498,-0.332219 -1.437447,-0.599361 -0.499298,-0.331415 -1.089177,-0.999969 -1.347957,-1.527739 -0.462477,-0.943202 -0.418529,0.40778 -0.436523,-13.419177 L 12.011861,14.04811 H 24 35.988139 l -0.01601,12.302405 c -0.01513,11.625519 -0.02141,12.320557 -0.114233,12.632303 -0.335332,1.126268 -1.103425,2.061307 -2.098446,2.554547 -0.907934,0.450071 -0.05871,0.412712 -9.621993,0.423284 -6.909921,0.0076 -8.591455,-0.0044 -8.887659,-0.06386 z M 32.027491,27.986254 V 17.95189 H 24 15.972509 V 27.986254 38.020619 H 24 32.027491 Z"
     id="path1673"
     transform="scale(0.5)" />
  <path
     style="fill:#12455a;stroke-width:0.0549828"
     d="m 15.334824,41.869581 c -0.393443,-0.05769 -0.643335,-0.145059 -1.149257,-0.40181 -0.755354,-0.383337 -1.672656,-1.43701 -1.947939,-2.23753 -0.135638,-0.394435 -0.166236,-2.728152 -0.181124,-13.814436 l -0.01527,-11.367699 11.959165,2e-6 11.959165,2e-6 -0.01428,9.223368 c -0.0079,5.072852 -0.02295,10.646048 -0.03356,12.384879 -0.01858,3.045903 -0.02349,3.173081 -0.134436,3.477865 -0.246337,0.676744 -0.513906,1.097192 -1.026408,1.612861 -0.430751,0.433413 -0.573135,0.537611 -1.073911,0.785903 l -0.57732,0.286244 -0.742268,0.05064 c -0.877367,0.05986 -16.614156,0.05959 -17.022564,-2.75e-4 z M 32.027491,27.986254 V 17.95189 H 24 15.972509 V 27.986254 38.020619 H 24 32.027491 Z"
     id="path1712"
     transform="scale(0.5)" />
  <path
     style="fill:#12455a;stroke-width:0.0549828"
     d="m 15.334824,41.869581 c -0.393443,-0.05769 -0.643335,-0.145059 -1.149257,-0.40181 -0.755354,-0.383337 -1.672656,-1.43701 -1.947939,-2.23753 -0.135638,-0.394435 -0.166236,-2.728152 -0.181124,-13.814436 l -0.01527,-11.367699 11.959165,2e-6 11.959165,2e-6 -0.01428,9.223368 c -0.0079,5.072852 -0.02295,10.646048 -0.03356,12.384879 -0.01858,3.045903 -0.02349,3.173081 -0.134436,3.477865 -0.246337,0.676744 -0.513906,1.097192 -1.026408,1.612861 -0.430751,0.433413 -0.573135,0.537611 -1.073911,0.785903 l -0.57732,0.286244 -0.742268,0.05064 c -0.877367,0.05986 -16.614156,0.05959 -17.022564,-2.75e-4 z M 32.027491,27.986254 V 17.95189 H 24 15.972509 V 27.986254 38.020619 H 24 32.027491 Z"
     id="path1751"
     transform="scale(0.5)" />
  <path
     style="fill:#12455a;stroke-width:0.0549828"
     d="M 10.034364,9.9793814 V 8 h 3.505728 3.505727 L 18.034364,7.0103093 19.022909,6.0206186 H 24 28.977091 L 29.965636,7.0103093 30.954181,8 h 3.505727 3.505728 V 9.9793814 11.958763 H 24 10.034364 Z"
     id="path1753"
     transform="scale(0.5)" />
</svg>
