<?xml version="1.0" encoding="UTF-8" standalone="no"?>
<svg
   height="48px"
   viewBox="0 0 24 24"
   width="48px"
   fill="#000000"
   version="1.1"
   id="svg1867"
   sodipodi:docname="email-blue.svg"
   inkscape:version="1.1 (c4e8f9e, 2021-05-24)"
   xmlns:inkscape="http://www.inkscape.org/namespaces/inkscape"
   xmlns:sodipodi="http://sodipodi.sourceforge.net/DTD/sodipodi-0.dtd"
   xmlns="http://www.w3.org/2000/svg"
   xmlns:svg="http://www.w3.org/2000/svg">
  <defs
     id="defs1871" />
  <sodipodi:namedview
     id="namedview1869"
     pagecolor="#ffffff"
     bordercolor="#666666"
     borderopacity="1.0"
     inkscape:pageshadow="2"
     inkscape:pageopacity="0.0"
     inkscape:pagecheckerboard="0"
     showgrid="false"
     inkscape:zoom="18.1875"
     inkscape:cx="24"
     inkscape:cy="24.659794"
     inkscape:window-width="1310"
     inkscape:window-height="1081"
     inkscape:window-x="0"
     inkscape:window-y="25"
     inkscape:window-maximized="0"
     inkscape:current-layer="svg1867" />
  <path
     d="M0 0h24v24H0V0z"
     fill="none"
     id="path1863" />
  <path
     d="M22 6c0-1.1-.9-2-2-2H4c-1.1 0-2 .9-2 2v12c0 1.1.9 2 2 2h16c1.1 0 2-.9 2-2V6zm-2 0l-8 5-8-5h16zm0 12H4V8l8 5 8-5v10z"
     id="path1865" />
  <path
     style="fill:#12455a;stroke-width:0.0549828"
     d="M 7.5601375,39.941502 C 6.5797549,39.837201 5.5943499,39.298027 4.9397594,38.507737 4.6143551,38.114875 4.2226508,37.313884 4.1234551,36.838488 4.0544014,36.507547 4.0431465,34.708291 4.0431465,24 c 0,-13.920698 -0.032162,-12.835513 0.4065752,-13.718213 C 5.0882774,8.9970706 6.2232489,8.2036175 7.6352051,8.054831 8.310107,7.9837124 39.685766,7.9831924 40.357388,8.0542887 c 1.428318,0.151198 2.550907,0.9343114 3.193107,2.2274983 0.438493,0.882986 0.406358,-0.201837 0.406358,13.718213 0,13.754143 0.02396,12.827819 -0.352289,13.620093 -0.242494,0.510624 -0.465207,0.832791 -0.821721,1.188666 -0.627362,0.626238 -1.508253,1.040552 -2.415635,1.13616 -0.614033,0.0647 -32.1977323,0.06141 -32.8070705,-0.0034 z M 40,26.003628 c 0,-8.015243 -0.01385,-10.02937 -0.06873,-9.996714 -0.0378,0.02249 -3.625413,2.263128 -7.972471,4.97919 -4.347059,2.716062 -7.928519,4.938295 -7.9588,4.938295 -0.03028,0 -3.611741,-2.222233 -7.9588,-4.938295 C 11.694142,18.270042 8.1065292,16.029406 8.0687285,16.006914 8.0138474,15.974258 8,17.988385 8,26.003628 V 36.041237 H 24 40 Z M 32.062341,17.002335 C 36.428045,14.273731 39.999988,12.02268 39.999992,12 39.999996,11.97732 32.8,11.958763 24,11.958763 c -8.8,0 -16,0.01857 -16,0.04127 0,0.07818 15.969877,10.022808 16.047552,9.993002 0.04243,-0.01628 3.649085,-2.262099 8.014789,-4.990703 z"
     id="path1929"
     transform="scale(0.5)" />
  <path
     style="fill:#12455a;stroke-width:0.0549828"
     d="M 7.3821793,39.8885 C 6.5517178,39.747804 5.7959193,39.342723 5.160308,38.697655 4.7384722,38.269543 4.2434147,37.317569 4.1505914,36.756014 4.062793,36.224857 4.1066185,11.316493 4.196003,10.946226 4.2318873,10.797578 4.3772295,10.469329 4.5189857,10.216782 4.9972832,9.3646684 5.5468551,8.8298567 6.3230241,8.4611961 7.1750359,8.0565122 6.4294735,8.0886197 15.721989,8.0564306 c 4.594861,-0.015917 12.079397,-0.015946 16.632303,-6.6e-5 9.207687,0.032116 8.470587,1.072e-4 9.322684,0.4048318 0.776169,0.3686605 1.325741,0.9034722 1.804038,1.7555856 0.141757,0.252547 0.287084,0.580797 0.32295,0.729444 0.08552,0.354437 0.132363,24.561926 0.04946,25.562365 -0.05171,0.624091 -0.06827,0.686786 -0.30602,1.158622 -0.540128,1.071945 -1.409442,1.794601 -2.58521,2.149072 -0.314839,0.09492 -1.082787,0.09984 -16.824742,0.107897 -9.072165,0.0046 -16.6120399,-0.01141 -16.7552777,-0.03568 z M 40,26.037609 c 0,-5.501995 -0.01856,-10.014859 -0.04124,-10.028585 -0.02268,-0.01373 -2.973196,1.804744 -6.556701,4.041045 -8.176217,5.102403 -9.289857,5.787928 -9.402522,5.787928 -0.111196,0 -1.130344,-0.627542 -9.401602,-5.789056 C 11.014433,17.812726 8.0639175,15.994545 8.0412371,16.008538 8.0185567,16.022532 8,20.535614 8,26.037609 V 36.041237 H 24 40 Z M 25.003971,21.434501 C 27.909151,19.63817 37.843118,13.420054 39.491204,12.366292 39.770816,12.187512 39.999682,12.02268 39.999795,12 39.999908,11.97732 32.8,11.958763 24,11.958763 c -8.8,0 -16,0.01879 -16,0.04176 0,0.02297 0.043299,0.06947 0.09622,0.103345 0.052921,0.03387 0.4519965,0.289363 0.8868345,0.567755 2.8939035,1.852732 14.9660545,9.348999 15.0558325,9.348999 0.0094,0 0.443729,-0.263753 0.965084,-0.586118 z"
     id="path1968"
     transform="scale(0.5)" />
</svg>
