<?xml version="1.0" encoding="UTF-8" standalone="no"?>
<svg
   height="48px"
   viewBox="0 0 24 24"
   width="48px"
   fill="#000000"
   version="1.1"
   id="svg890"
   sodipodi:docname="near-me-blue.svg"
   inkscape:version="1.1 (c4e8f9e, 2021-05-24)"
   xmlns:inkscape="http://www.inkscape.org/namespaces/inkscape"
   xmlns:sodipodi="http://sodipodi.sourceforge.net/DTD/sodipodi-0.dtd"
   xmlns="http://www.w3.org/2000/svg"
   xmlns:svg="http://www.w3.org/2000/svg">
  <defs
     id="defs894" />
  <sodipodi:namedview
     id="namedview892"
     pagecolor="#ffffff"
     bordercolor="#666666"
     borderopacity="1.0"
     inkscape:pageshadow="2"
     inkscape:pageopacity="0.0"
     inkscape:pagecheckerboard="0"
     showgrid="false"
     inkscape:zoom="14.916667"
     inkscape:cx="23.631285"
     inkscape:cy="23.96648"
     inkscape:window-width="2560"
     inkscape:window-height="1325"
     inkscape:window-x="0"
     inkscape:window-y="25"
     inkscape:window-maximized="1"
     inkscape:current-layer="svg890" />
  <path
     d="M0 0h24v24H0V0z"
     fill="none"
     id="path886" />
  <path
     d="M17.27 6.73l-4.24 10.13-1.32-3.42-.32-.83-.82-.32-3.43-1.33 10.13-4.23M21 3L3 10.53v.98l6.84 2.65L12.48 21h.98L21 3z"
     id="path888" />
  <path
     style="fill:#12455a;stroke-width:0.0670391"
     d="m 24.945088,41.851008 c -0.10165,-0.264925 -5.182736,-13.423101 -5.210987,-13.494574 -0.01481,-0.03748 -3.104006,-1.259269 -6.864867,-2.715084 l -6.8379314,-2.646937 0.017868,-0.959691 0.017868,-0.959693 17.8994404,-7.49195 c 9.844693,-4.1205736 17.90883,-7.4854693 17.920304,-7.4775464 0.01148,0.00792 -3.357577,8.0798774 -7.486781,17.9376764 l -7.507644,17.923271 -0.944343,0.01861 c -0.928806,0.0183 -0.945308,0.01609 -1.002928,-0.134078 z m 5.411057,-18.286762 c 2.322124,-5.549162 4.201279,-10.097356 4.175902,-10.107098 -0.08201,-0.03148 -20.195804,8.395414 -20.19596,8.46132 -6.7e-5,0.03505 1.878958,0.793013 4.175646,1.684372 2.747019,1.066134 4.202776,1.663655 4.254646,1.746336 0.04337,0.06913 0.796088,1.989666 1.672712,4.267866 0.876625,2.278201 1.616621,4.118425 1.644436,4.089386 0.02782,-0.02904 1.950494,-4.59302 4.272618,-10.142182 z"
     id="path1143"
     transform="scale(0.5)" />
  <path
     style="fill:#12455a;stroke-width:0.0670391"
     d="M 24.986023,41.849162 C 24.967374,41.803073 23.786829,38.749901 22.362591,35.064337 20.938354,31.378773 19.736139,28.339394 19.691003,28.310163 19.52957,28.205613 15.439224,26.599606 7.8801631,23.67283 l -1.8069878,-0.699644 0.019637,-0.927934 c 0.0108,-0.510363 0.028334,-0.936791 0.038963,-0.947618 0.029126,-0.02967 30.1588937,-12.6355858 34.0581687,-14.2495132 0.848045,-0.3510094 1.550433,-0.6145795 1.560863,-0.5857113 0.01742,0.048229 -1.641788,4.0504535 -5.630382,13.5811655 -3.274545,7.824502 -8.988566,21.467491 -9.118211,21.77095 l -0.136043,0.318436 h -0.92312 c -0.675718,0 -0.932207,-0.02246 -0.957028,-0.0838 z m 3.606018,-13.994413 c 4.13342,-9.842168 5.977898,-14.323917 5.919204,-14.38261 -0.0218,-0.0218 -0.457479,0.131285 -0.968178,0.340188 -3.225294,1.319322 -17.790219,7.429804 -18.787624,7.882049 -0.299,0.135573 -0.411775,0.218007 -0.363835,0.265947 0.06497,0.06497 0.786985,0.357025 5.854202,2.368037 2.446761,0.971038 2.420389,0.958191 2.562355,1.248305 0.06349,0.129736 0.625839,1.547613 1.249672,3.150838 1.351059,3.472158 1.791157,4.576768 1.931933,4.849 l 0.104884,0.202823 0.467408,-1.101954 c 0.257074,-0.606074 1.170565,-2.776255 2.029979,-4.822623 z"
     id="path1182"
     transform="scale(0.5)" />
</svg>
