<?xml version="1.0" standalone="no"?>
<svg xmlns:xlink="http://www.w3.org/1999/xlink" id="wave" style="transform:rotate(180deg); transition: 0.3s" viewBox="0 0 1440 110" version="1.1" xmlns="http://www.w3.org/2000/svg"><defs><linearGradient id="sw-gradient-0" x1="0" x2="0" y1="1" y2="0"><stop stop-color="rgba(255, 255, 255, 1)" offset="0%"/><stop stop-color="rgba(255, 255, 255, 1)" offset="100%"/></linearGradient></defs><path style="transform:translate(0, 0px); opacity:1" fill="url(#sw-gradient-0)" d="M0,66L48,71.5C96,77,192,88,288,86.2C384,84,480,70,576,66C672,62,768,70,864,77C960,84,1056,92,1152,78.8C1248,66,1344,33,1440,23.8C1536,15,1632,29,1728,29.3C1824,29,1920,15,2016,18.3C2112,22,2208,44,2304,58.7C2400,73,2496,81,2592,75.2C2688,70,2784,51,2880,45.8C2976,40,3072,48,3168,45.8C3264,44,3360,33,3456,27.5C3552,22,3648,22,3744,27.5C3840,33,3936,44,4032,42.2C4128,40,4224,26,4320,20.2C4416,15,4512,18,4608,33C4704,48,4800,73,4896,69.7C4992,66,5088,33,5184,23.8C5280,15,5376,29,5472,40.3C5568,51,5664,59,5760,58.7C5856,59,5952,51,6048,55C6144,59,6240,73,6336,78.8C6432,84,6528,81,6624,69.7C6720,59,6816,40,6864,31.2L6912,22L6912,110L6864,110C6816,110,6720,110,6624,110C6528,110,6432,110,6336,110C6240,110,6144,110,6048,110C5952,110,5856,110,5760,110C5664,110,5568,110,5472,110C5376,110,5280,110,5184,110C5088,110,4992,110,4896,110C4800,110,4704,110,4608,110C4512,110,4416,110,4320,110C4224,110,4128,110,4032,110C3936,110,3840,110,3744,110C3648,110,3552,110,3456,110C3360,110,3264,110,3168,110C3072,110,2976,110,2880,110C2784,110,2688,110,2592,110C2496,110,2400,110,2304,110C2208,110,2112,110,2016,110C1920,110,1824,110,1728,110C1632,110,1536,110,1440,110C1344,110,1248,110,1152,110C1056,110,960,110,864,110C768,110,672,110,576,110C480,110,384,110,288,110C192,110,96,110,48,110L0,110Z"/></svg>