<?xml version="1.0" encoding="UTF-8" standalone="no"?>
<svg
   height="48px"
   viewBox="0 0 24 24"
   width="48px"
   fill="#000000"
   version="1.1"
   id="svg1310"
   sodipodi:docname="call-blue.svg"
   inkscape:version="1.1 (c4e8f9e, 2021-05-24)"
   xmlns:inkscape="http://www.inkscape.org/namespaces/inkscape"
   xmlns:sodipodi="http://sodipodi.sourceforge.net/DTD/sodipodi-0.dtd"
   xmlns="http://www.w3.org/2000/svg"
   xmlns:svg="http://www.w3.org/2000/svg">
  <defs
     id="defs1314" />
  <sodipodi:namedview
     id="namedview1312"
     pagecolor="#ffffff"
     bordercolor="#666666"
     borderopacity="1.0"
     inkscape:pageshadow="2"
     inkscape:pageopacity="0.0"
     inkscape:pagecheckerboard="0"
     showgrid="false"
     inkscape:zoom="18.1875"
     inkscape:cx="13.168385"
     inkscape:cy="24.659794"
     inkscape:window-width="1310"
     inkscape:window-height="1081"
     inkscape:window-x="0"
     inkscape:window-y="25"
     inkscape:window-maximized="0"
     inkscape:current-layer="svg1310" />
  <path
     d="M0 0h24v24H0V0z"
     fill="none"
     id="path1306" />
  <path
     d="M6.54 5c.06.89.21 1.76.45 2.59l-1.2 1.2c-.41-1.2-.67-2.47-.76-3.79h1.51m9.86 12.02c.85.24 1.72.39 2.6.45v1.49c-1.32-.09-2.59-.35-3.8-.75l1.2-1.19M7.5 3H4c-.55 0-1 .45-1 1 0 9.39 7.61 17 17 17 .55 0 1-.45 1-1v-3.49c0-.55-.45-1-1-1-1.24 0-2.45-.2-3.57-.57-.1-.04-.21-.05-.31-.05-.26 0-.51.1-.71.29l-2.2 2.2c-2.83-1.45-5.15-3.76-6.59-6.59l2.2-2.2c.28-.28.36-.67.25-1.02C8.7 6.45 8.5 5.25 8.5 4c0-.55-.45-1-1-1z"
     id="path1308" />
  <path
     style="fill:#12455a;stroke-width:0.0549828"
     d="m 38.570447,41.945493 c -2.642821,-0.15099 -4.714793,-0.458655 -6.9873,-1.037537 C 20.506459,38.086362 11.52087,29.771511 7.8322116,18.929934 6.705059,15.617046 6.0490992,11.805932 6.0483336,8.5656365 6.0481387,7.7406932 6.0628198,7.5799298 6.1627374,7.312876 6.3236509,6.8827964 6.7714671,6.4123049 7.2147339,6.2076116 L 7.5601375,6.04811 11.37937,6.0325544 c 3.707647,-0.015101 3.829736,-0.012292 4.178695,0.096145 0.613729,0.1907133 1.046406,0.5966036 1.291458,1.2115068 0.07704,0.1933206 0.108497,0.4998989 0.14385,1.4020618 0.08771,2.238318 0.384901,4.035083 0.994142,6.010473 0.19937,0.646435 0.222818,0.778531 0.200349,1.128649 -0.04599,0.716567 -0.05803,0.73167 -2.663744,3.340928 l -2.339413,2.342593 0.370968,0.681462 c 1.44986,2.663372 2.985369,4.71476 5.164233,6.899243 1.251652,1.25488 1.835765,1.774154 3.025796,2.689915 1.257147,0.967409 3.378927,2.322856 4.441577,2.837392 l 0.262883,0.127288 2.32131,-2.318126 c 2.619019,-2.615426 2.603628,-2.603349 3.365983,-2.641259 0.38541,-0.01917 0.514735,0.0018 1.044674,0.169367 1.906493,0.602829 3.888488,0.933157 6.117738,1.019608 1.081391,0.04194 1.157581,0.05211 1.482117,0.19788 0.401662,0.180413 0.839657,0.611626 1.021774,1.005954 0.120164,0.260181 0.120698,0.276729 0.135781,4.200431 0.01496,3.891928 0.01375,3.942942 -0.100881,4.249324 -0.1632,0.436192 -0.608774,0.90433 -1.053394,1.106738 -0.323229,0.147147 -0.39482,0.157786 -1.115163,0.165727 -0.423368,0.0047 -0.918213,5e-6 -1.099656,-0.01036 z M 38.04811,36.434232 v -1.531403 l -0.536083,-0.03758 c -1.14659,-0.08038 -2.862997,-0.374979 -4.192439,-0.71958 l -0.522337,-0.135393 -0.852234,0.843585 c -0.468728,0.463972 -1.019896,0.999461 -1.224818,1.189975 -0.204922,0.190515 -0.353376,0.364479 -0.329897,0.386588 0.05776,0.05439 0.978856,0.332446 1.884612,0.568917 1.79362,0.468271 3.197314,0.708019 5.443299,0.929702 0.105842,0.01045 0.223368,0.02295 0.261168,0.02779 0.05355,0.0069 0.06873,-0.329443 0.06873,-1.522604 z M 13.792746,14.323024 c -0.257031,-1.010785 -0.510112,-2.45385 -0.597848,-3.408935 -0.03472,-0.378007 -0.07392,-0.742955 -0.08711,-0.810996 L 13.083818,9.9793814 H 11.554869 10.02592 l 0.01603,0.1512026 c 0.0088,0.08316 0.04253,0.435739 0.07493,0.783505 0.184238,1.97776 0.617094,4.095977 1.243341,6.084386 l 0.200445,0.636437 1.224399,-1.229827 1.224398,-1.229827 z"
     id="path1410"
     transform="scale(0.5)" />
</svg>
