<?xml version="1.0" standalone="no"?>
<svg xmlns:xlink="http://www.w3.org/1999/xlink" id="wave" style="transform:rotate(180deg); transition: 0.3s" viewBox="0 0 1440 160" version="1.1" xmlns="http://www.w3.org/2000/svg"><defs><linearGradient id="sw-gradient-0" x1="0" x2="0" y1="1" y2="0"><stop stop-color="rgba(255, 255, 255, 1)" offset="0%"/><stop stop-color="rgba(255, 255, 255, 1)" offset="100%"/></linearGradient></defs><path style="transform:translate(0, 0px); opacity:1" fill="url(#sw-gradient-0)" d="M0,112L60,96C120,80,240,48,360,37.3C480,27,600,37,720,56C840,75,960,101,1080,101.3C1200,101,1320,75,1440,53.3C1560,32,1680,16,1800,24C1920,32,2040,64,2160,74.7C2280,85,2400,75,2520,69.3C2640,64,2760,64,2880,61.3C3000,59,3120,53,3240,45.3C3360,37,3480,27,3600,24C3720,21,3840,27,3960,26.7C4080,27,4200,21,4320,40C4440,59,4560,101,4680,122.7C4800,144,4920,144,5040,128C5160,112,5280,80,5400,77.3C5520,75,5640,101,5760,112C5880,123,6000,117,6120,112C6240,107,6360,101,6480,104C6600,107,6720,117,6840,117.3C6960,117,7080,107,7200,88C7320,69,7440,43,7560,40C7680,37,7800,59,7920,72C8040,85,8160,91,8280,93.3C8400,96,8520,96,8580,96L8640,96L8640,160L8580,160C8520,160,8400,160,8280,160C8160,160,8040,160,7920,160C7800,160,7680,160,7560,160C7440,160,7320,160,7200,160C7080,160,6960,160,6840,160C6720,160,6600,160,6480,160C6360,160,6240,160,6120,160C6000,160,5880,160,5760,160C5640,160,5520,160,5400,160C5280,160,5160,160,5040,160C4920,160,4800,160,4680,160C4560,160,4440,160,4320,160C4200,160,4080,160,3960,160C3840,160,3720,160,3600,160C3480,160,3360,160,3240,160C3120,160,3000,160,2880,160C2760,160,2640,160,2520,160C2400,160,2280,160,2160,160C2040,160,1920,160,1800,160C1680,160,1560,160,1440,160C1320,160,1200,160,1080,160C960,160,840,160,720,160C600,160,480,160,360,160C240,160,120,160,60,160L0,160Z"/></svg>